<?xml version="1.0" encoding="UTF-8" standalone="no"?>
<svg xmlns:svg="http://www.w3.org/2000/svg" xmlns="http://www.w3.org/2000/svg" version="1.0" width="495" height="475" viewBox="-5 -5 490 470">
<g style="fill:none;stroke:black;stroke-width:2">
<line x1="95.6" y1="448.6" x2="383.6" y2="448.1"/>
<line x1="383.6" y1="448.6" x2="473.6" y2="175"/>
<line x1="95.6" y1="448.6" x2="5.6" y2="175"/>
<line x1="473.6" y1="175" x2="239.6" y2="5.8"/>
<line x1="5.6" y1="175" x2="239.6" y2="5.8"/>
<line x1="473.6" y1="175" x2="426.8" y2="189.4"/>
<line x1="5.6" y1="175" x2="52.4" y2="189.4"/>
<line x1="239.6" y1="5.8" x2="239.6" y2="52.6"/>
<line x1="95.6" y1="448.6" x2="124.4" y2="409"/>
<line x1="383.6" y1="448.6" x2="354.8" y2="409"/>
<line x1="239.6" y1="52.6" x2="196.4" y2="113.8"/>
<line x1="52.4" y1="189.4" x2="124.4" y2="167.8"/>
<line x1="124.4" y1="333.4" x2="124.4" y2="409"/>
<line x1="52.4" y1="189.4" x2="95.6" y2="250.6"/>
<line x1="239.6" y1="52.6" x2="285.6" y2="116.6"/>
<line x1="354.8" y1="167.8" x2="425.2" y2="189.7"/>
<line x1="426.8" y1="189.4" x2="383.6" y2="250.6"/>
<line x1="354.8" y1="333.4" x2="354.8" y2="409"/>
<line x1="124.4" y1="409" x2="196.4" y2="387.4"/>
<line x1="282.8" y1="387.4" x2="354.8" y2="409"/>
<line x1="124.4" y1="167.8" x2="196.4" y2="113.8"/>
<line x1="282.8" y1="113.8" x2="354.8" y2="167.8"/>
<line x1="95.6" y1="250.6" x2="124.4" y2="333.4"/>
<line x1="354.8" y1="333.4" x2="383.6" y2="250.6"/>
<line x1="196.4" y1="387.4" x2="282.8" y2="387.4"/>
<line x1="282.3" y1="351.4" x2="282.3" y2="387.4"/>
<line x1="196.4" y1="351.4" x2="196.4" y2="387.4"/>
<line x1="221.6" y1="340.6" x2="257.6" y2="340.6"/>
<line x1="257.6" y1="340.6" x2="282.3" y2="351.4"/>
<line x1="196.4" y1="351.4" x2="221.6" y2="340.6"/>
<line x1="347.9" y1="239.8" x2="382.1" y2="250.9"/>
<line x1="321.3" y1="321.5" x2="355.5" y2="332.6"/>
<line x1="318.8" y1="294.2" x2="329.9" y2="260"/>
<line x1="329.9" y1="260" x2="347.9" y2="239.8"/>
<line x1="321.3" y1="321.5" x2="318.8" y2="294.2"/>
<line x1="157.8" y1="321.5" x2="123.5" y2="332.6"/>
<line x1="131.2" y1="239.8" x2="97" y2="250.9"/>
<line x1="149.3" y1="260.4" x2="160.4" y2="294.7"/>
<line x1="160.4" y1="294.7" x2="157.8" y2="321.5"/>
<line x1="131.2" y1="239.8" x2="149.3" y2="260.4"/>
<line x1="264.2" y1="146.1" x2="285.3" y2="117"/>
<line x1="333.7" y1="196.6" x2="354.8" y2="167.5"/>
<line x1="306.9" y1="190.5" x2="277.8" y2="169.4"/>
<line x1="277.8" y1="169.4" x2="264.2" y2="146.1"/>
<line x1="333.7" y1="196.6" x2="306.9" y2="190.5"/>
<line x1="145.6" y1="196.6" x2="124.4" y2="167.5"/>
<line x1="215.1" y1="146.1" x2="193.9" y2="117"/>
<line x1="201" y1="169.7" x2="171.9" y2="190.8"/>
<line x1="171.9" y1="190.8" x2="145.6" y2="196.6"/>
<line x1="215.1" y1="146.1" x2="201" y2="169.7"/>
<line x1="215.1" y1="146.1" x2="264.2" y2="146.1"/>
<line x1="145.6" y1="196.6" x2="131.2" y2="239.8"/>
<line x1="333.7" y1="196.6" x2="347.9" y2="239.8"/>
<line x1="282.3" y1="351.4" x2="321.3" y2="321.5"/>
<line x1="196.4" y1="351.4" x2="157.8" y2="321.5"/>
<line x1="183.9" y1="250.3" x2="149.6" y2="261.4"/>
<line x1="194.7" y1="283" x2="160.4" y2="294.1"/>
<line x1="284.4" y1="284.5" x2="318.6" y2="295.6"/>
<line x1="295.4" y1="248.5" x2="329.6" y2="259.6"/>
<line x1="221.8" y1="304.6" x2="221.8" y2="340.6"/>
<line x1="257.6" y1="304.6" x2="257.6" y2="340.6"/>
<line x1="192.8" y1="219.1" x2="172.3" y2="190.9"/>
<line x1="223.6" y1="197.5" x2="202.4" y2="168.4"/>
<line x1="257.1" y1="197.6" x2="276.8" y2="169.5"/>
<line x1="285.2" y1="220.1" x2="306.3" y2="191"/>
<line x1="221.8" y1="304.6" x2="239.6" y2="297.4"/>
<line x1="239.6" y1="297.4" x2="257.6" y2="304.6"/>
<line x1="257.6" y1="304.6" x2="284.4" y2="284.5"/>
<line x1="284.4" y1="284.5" x2="282.8" y2="265"/>
<line x1="282.8" y1="265" x2="295.4" y2="248.5"/>
<line x1="295.4" y1="248.5" x2="285.2" y2="220.1"/>
<line x1="257.6" y1="196.6" x2="223.5" y2="196.6"/>
<line x1="222.5" y1="196.9" x2="214.4" y2="218.2"/>
<line x1="214.4" y1="218.2" x2="192.8" y2="218.2"/>
<line x1="192.8" y1="218.2" x2="182" y2="250.6"/>
<line x1="182" y1="250.6" x2="196.4" y2="265"/>
<line x1="196.4" y1="265" x2="192.8" y2="283"/>
<line x1="192.8" y1="283" x2="221.6" y2="304.6"/>
<line x1="239.6" y1="297.4" x2="239.6" y2="275.8"/>
<line x1="214.4" y1="218.2" x2="225.2" y2="232.6"/>
<line x1="264.8" y1="218.2" x2="254" y2="232.6"/>
<line x1="225.2" y1="232.6" x2="254" y2="232.6"/>
<line x1="196.6" y1="264.8" x2="217.8" y2="258"/>
<line x1="282.8" y1="265.4" x2="261.2" y2="258.3"/>
<line x1="261.2" y1="257.8" x2="254" y2="232.6"/>
<line x1="218" y1="257.8" x2="225.2" y2="232.6"/>
<line x1="218" y1="257.8" x2="239.6" y2="275.8"/>
<line x1="261.2" y1="257.8" x2="239.6" y2="275.8"/>
<line x1="286.4" y1="218.2" x2="264.8" y2="218.2"/>
<line x1="264.9" y1="217.5" x2="257.5" y2="197.1"/>
</g><g style="fill:blue;stroke:black;stroke-width:2"> 
<circle cx="254" cy="233.2" r="6"/>
<circle cx="264.8" cy="217.7" r="6"/>
<circle cx="225.7" cy="232.6" r="6"/>
<circle cx="214.7" cy="217.7" r="6"/>
<circle cx="261" cy="257.9" r="6"/>
<circle cx="239.8" cy="275.4" r="6"/>
<circle cx="218.2" cy="257.6" r="6"/>
<circle cx="285.2" cy="218.4" r="6"/>
<circle cx="295.5" cy="248.4" r="6"/>
<circle cx="282.5" cy="264.9" r="6"/>
<circle cx="193.5" cy="282.7" r="6"/>
<circle cx="182" cy="250.7" r="6"/>
<circle cx="192.8" cy="218.6" r="6"/>
<circle cx="222.7" cy="196.6" r="6"/>
<circle cx="257.5" cy="196.6" r="6"/>
<circle cx="284.3" cy="284.9" r="6"/>
<circle cx="257.7" cy="304.4" r="6"/>
<circle cx="239.3" cy="297.6" r="6"/>
<circle cx="221.8" cy="304.6" r="6"/>
<circle cx="277" cy="169.4" r="6"/>
<circle cx="306.3" cy="191.1" r="6"/>
<circle cx="333.5" cy="196.4" r="6"/>
<circle cx="264.3" cy="146.2" r="6"/>
<circle cx="215" cy="146.1" r="6"/>
<circle cx="202.2" cy="168.9" r="6"/>
<circle cx="172.2" cy="190.7" r="6"/>
<circle cx="354.7" cy="167.6" r="6"/>
<circle cx="347.7" cy="239.9" r="6"/>
<circle cx="329.7" cy="259.7" r="6"/>
<circle cx="382.8" cy="251.1" r="6"/>
<circle cx="285.8" cy="116.9" r="6"/>
<circle cx="193.8" cy="117.7" r="6"/>
<circle cx="239.5" cy="53.20" r="6"/>
<circle cx="239.5" cy="5.900" r="6"/>
<circle cx="425.8" cy="189.6" r="6"/>
<circle cx="473.2" cy="175.1" r="6"/>
<circle cx="318.4" cy="295.3" r="6"/>
<circle cx="321.2" cy="321.5" r="6"/>
<circle cx="354.6" cy="332.3" r="6"/>
<circle cx="257.6" cy="340.8" r="6"/>
<circle cx="221.4" cy="340.6" r="6"/>
<circle cx="282.2" cy="387.5" r="6"/>
<circle cx="282.4" cy="351.5" r="6"/>
<circle cx="354.6" cy="408.6" r="6"/>
<circle cx="383.1" cy="447.6" r="6"/>
<circle cx="196.3" cy="387.4" r="6"/>
<circle cx="196.4" cy="351.4" r="6"/>
<circle cx="160.5" cy="294.1" r="6"/>
<circle cx="150.2" cy="261.1" r="6"/>
<circle cx="131.5" cy="239.7" r="6"/>
<circle cx="96" cy="251.2" r="6"/>
<circle cx="157.7" cy="321.6" r="6"/>
<circle cx="124.5" cy="332.7" r="6"/>
<circle cx="124.5" cy="409.1" r="6"/>
<circle cx="95.7" cy="449.2" r="6"/>
<circle cx="5.900" cy="175.1" r="6"/>
<circle cx="52.70" cy="189.3" r="6"/>
<circle cx="124.5" cy="167.9" r="6"/>
<circle cx="145.7" cy="196.9" r="6"/>
<circle cx="218.2" cy="257.6" r="6" transform="translate(-21.9505,7.22055)"/>
</g></svg>